<svg xmlns="http://www.w3.org/2000/svg"
  xmlns:xlink="http://www.w3.org/1999/xlink" width="800" height="300" viewBox="0 0 211.6667 79.375">
  <style>
    :root {
      --primary-color: #779dc4ff;
      --secondary-color: #9558b4ff;
    }
    @media (prefers-color-scheme: dark) {
      :root {
         --primary-color: #aecae6ff;
         --secondary-color: #ffac2cdc;
      }
    }
  </style>
  <defs>
    <linearGradient id="b" x1="35.8007" x2="176.6437" y1="39.671" y2="39.671" gradientUnits="userSpaceOnUse">
      <stop offset="0" style="stop-color:var(--primary-color);"/>
      <stop offset="1" style="stop-color:var(--secondary-color);"/>
    </linearGradient>
  </defs>
  <g style="fill:url(#b);fill-rule:evenodd;">
    <path d="m43.4715 15.8708-7.6708 18.034h1.397l2.5146-5.9436h8.6106l2.5146 5.9436h1.3716l-7.62-18.034zm4.4958 11.0236h-7.9502l4.0132-9.4488zm12.2767 7.0104h12.065v-1.1684H61.5394V15.8708H60.244zm21.3444-15.621 12.3698 15.621h1.27v-18.034h-1.2954v15.875l-12.573-15.875H80.293v18.034h1.2954zm23.6305 15.621h1.2954v-18.034h-1.2954zm11.3114 0h12.065v-1.1684h-10.7696V15.8708h-1.2953zm25.7133-18.034-7.6708 18.034h1.397l2.5146-5.9436h8.6106l2.5146 5.9436h1.3716l-7.62-18.034zm4.4958 11.0236h-7.9502l4.0132-9.4488zm28.6089 7.0104h1.2954v-18.034h-1.2954l-7.5184 12.9032-7.5184-12.9032h-1.2954v18.034h1.2954V18.3854l7.0866 12.1412h.8636l7.0866-12.1412z"/>
    <path d="m116.6836 111.875-2.1445 5.1582a.2574.2574 0 0 1-.2168.1563l-5.5704.4472 4.2442 3.6348a.2574.2574 0 0 1 .082.2558l-1.2969 5.4336 4.7676-2.912a.2574.2574 0 0 1 .2695 0l4.7656 2.912-1.2949-5.4336a.2578.2578 0 0 1 .082-.2558l4.2442-3.6348-5.5704-.4473a.2582.2582 0 0 1-.2167-.1562zm11.6915-4.6782a.267.267 0 0 0-.2483.1648l-2.3201 5.5782-1.4105.1137-1.6003-3.8485a.267.267 0 0 0-.2462-.1638.2671.2671 0 0 0-.2483.1638l-1.7286 4.1552-.7877.0636c-.2359.0196-.3315.3137-.1523.4684l.53.4538-.1815.4371-1.471.119-1.5805-3.8006a.267.267 0 0 0-.2462-.1637.2671.2671 0 0 0-.2483.1637l-1.7078 4.1052-.7678.0615c-.236.0196-.3315.3137-.1523.4684l.5164.4423-.2086.5008-6.0216.484c-.2372.0188-.3333.315-.1523.4695l4.5881 3.9288-1.402 5.8797c-.0546.231.197.413.3995.289l5.1567-3.1506.4715.288-.1617.677c-.0554.232.198.4147.4006.289l.6708-.41 3.7755 2.3065c.202.1209.4502-.0596.3975-.289l-.9504-3.9861 1.2623-.772.4465.2733-.1773.7438c-.0545.2311.197.413.3995.289l.7345-.4486 3.7535 2.293c.2022.1225.452-.0587.3985-.289l-.9462-3.9621 1.2164-.7428 5.1567 3.1495c.2022.1224.452-.0587.3985-.289l-1.4031-5.8786 4.5902-3.9299c.1793-.1546.0836-.4487-.1523-.4684l-6.0236-.484-2.3202-5.5782a.2671.2671 0 0 0-.2462-.1648zm0 .9629 2.1366 5.1348a.267.267 0 0 0 .2253.1648l5.5448.4454-4.2251 3.619a.267.267 0 0 0-.0856.265l1.2905 5.4123-4.7478-2.9002a.267.267 0 0 0-.2796 0l-1.205.7365-.3275-1.3708 4.5903-3.9298c.1792-.1547.0836-.4488-.1524-.4684l-6.0236-.4851-.5039-1.2112 1.4021-.1127a.2678.2678 0 0 0 .2243-.1648z" transform="translate(2.1125 -45.2964) scale(.85127)"/>
  </g>
</svg>
